<svg width="100" height="27" viewBox="0 0 3384 907" fill="none" xmlns="http://www.w3.org/2000/svg">
<path d="M709.978 422.174L943.628 488.929L754.99 491.381C687.02 492.265 620.779 513.286 564.716 551.727C496.299 598.638 413.165 619.283 330.757 609.774C268.832 602.629 210.013 578.787 160.591 540.796L-7.38569e-05 417.351L208.882 478.981C293.203 503.86 383.988 493.765 460.784 450.971C536.726 408.652 626.386 398.291 709.978 422.174Z" fill="url(#paint0_linear_502_78)"/>
<path d="M716.218 516.722L511.821 297.726C421.66 201.124 268.53 201.124 178.369 297.726C284.716 297.726 386.292 341.866 458.855 419.611L629.942 602.918C738.52 719.253 927.93 700.79 1012 565.678C913.713 618.332 792.297 598.236 716.218 516.722Z" fill="#8BC34A"/>
<path d="M1447.01 321.361C1442.91 318.673 1437.27 315.428 1430 311.626C1422.72 307.857 1408.76 302.317 1388.14 295.008C1367.49 287.699 1348.02 282.815 1329.73 280.39C1311.41 277.931 1291.65 279.57 1270.41 285.241C1249.2 290.944 1231.56 302.448 1217.67 319.755C1205.44 340.863 1203.8 359.12 1212.82 374.525C1221.86 389.963 1236.68 401.206 1257.33 408.22C1277.94 415.267 1301.64 423.101 1328.39 431.754C1355.13 440.407 1380.31 448.962 1403.81 457.32C1427.38 465.711 1446.58 478.691 1461.4 496.292C1476.25 513.893 1482.18 535.133 1479.26 559.978C1475.79 593.017 1463.1 618.846 1441.34 637.496C1419.54 656.179 1393.94 666.995 1364.57 669.978C1335.21 672.961 1305.41 672.272 1275.22 667.946C1244.94 663.619 1218.06 656.572 1194.53 646.837C1170.99 637.102 1155.13 627.368 1147 617.633L1167.91 582.725C1173.75 586.527 1181.71 591.378 1191.9 597.311C1202.07 603.309 1220.98 611.274 1248.58 621.271C1276.21 631.301 1301.64 636.283 1324.91 636.283C1362.71 636.283 1390.6 628.449 1408.63 612.749C1426.62 597.082 1435.67 576.235 1435.67 550.276C1435.67 535.133 1427.67 521.432 1411.67 509.272C1395.68 497.079 1377.52 487.77 1357.17 481.247C1336.81 474.79 1310.98 468.3 1279.55 461.811C1238.25 453.125 1206.72 436.212 1184.96 411.039C1163.13 385.932 1157.46 357.907 1167.91 327.064C1178.37 296.745 1199.77 274.031 1232.02 258.888C1264.31 243.745 1298.46 238.566 1334.48 243.45C1354.84 246.17 1376.24 251.447 1398.6 259.281C1420.98 267.148 1438.29 274.326 1450.48 280.816L1468.81 290.518L1447.01 321.361Z" fill="#626260"/>
<path d="M2241.49 745.868C2265.32 755.603 2292.95 760.487 2324.39 760.487C2333.07 760.487 2341.33 759.274 2349.23 756.816C2357.07 754.423 2364.18 750.457 2370.6 745.049C2376.96 739.641 2382.63 734.626 2387.58 730.037C2392.53 725.448 2397.19 719.221 2401.54 711.387C2405.9 703.521 2409.21 697.424 2411.54 693.097C2413.87 688.771 2416.65 682.805 2419.87 675.267C2423.01 667.662 2424.95 663.631 2425.54 663.074L2210.98 250.738H2260.67L2443.83 619.251L2604.27 250.738H2653.14L2463.89 667.957C2451.1 707.454 2431.47 738.69 2405.05 761.667C2378.57 784.677 2350.22 796.444 2320.03 797.001C2296.1 797.001 2269.98 792.674 2241.49 784.021V745.868Z" fill="#626260"/>
<path d="M1487.13 250.746H1536.82L1665.93 619.226L1801.95 250.746H1803.69H1843.84L1972.89 619.226L2108.98 250.746H2157.78L1992.98 667.965H1956.33L1823.75 304.337L1685.99 667.965H1649.34L1487.13 250.746Z" fill="#626260"/>
<path d="M2753.47 664.709H2710.73V250.735H2753.47V321.369C2789.52 267.812 2839.51 241 2903.49 241C2943.57 241 2976.15 250.341 3001.13 268.992C3026.17 287.707 3044.17 312.454 3055.21 343.297C3059.87 334.644 3065.54 325.696 3072.22 316.518C3078.91 307.308 3088.65 296.328 3101.46 283.61C3114.21 270.893 3130.8 260.633 3151.15 252.767C3171.47 244.933 3193.89 241 3218.31 241C3247.35 241 3273.11 246.408 3295.47 257.225C3317.89 268.107 3335.16 282.43 3347.35 300.294C3359.58 318.124 3368.73 337.201 3374.85 357.49C3380.98 377.779 3384 399.018 3384 421.208V664.709H3341.26V437.433V428.518C3341.85 422.585 3341.72 414.981 3340.87 405.77C3339.98 396.593 3338.37 386.301 3336.05 374.96C3333.72 363.586 3329.52 352.213 3323.43 340.872C3317.27 329.498 3309.73 319.206 3300.71 309.996C3291.7 300.785 3279.47 293.247 3264.1 287.248C3248.7 281.349 3231.06 278.366 3211.33 278.366C3142.69 278.366 3094.48 315.142 3066.55 388.759C3068.29 399.575 3069.18 410.392 3069.18 421.208V664.709H3026.47V437.433V428.518C3027.02 422.585 3026.86 414.981 3026.01 405.77C3025.12 396.593 3023.55 386.301 3021.22 374.96C3018.9 363.586 3014.67 352.213 3008.57 340.872C3002.47 329.498 2994.87 319.206 2985.89 309.996C2976.88 300.785 2964.65 293.247 2949.28 287.248C2933.84 281.349 2916.27 278.366 2896.51 278.366C2829.64 278.366 2781.95 313.798 2753.47 384.695L2753.47 664.709Z" fill="#626260"/>
<defs>
<linearGradient id="paint0_linear_502_78" x1="944.483" y1="451.708" x2="0.00327672" y2="451.708" gradientUnits="userSpaceOnUse">
<stop offset="0.03125" stop-color="#0D2236"/>
<stop offset="0.453125" stop-color="#2B72B4"/>
<stop offset="0.604167" stop-color="#2B72B4"/>
<stop offset="0.973958" stop-color="#0D2236"/>
</linearGradient>
</defs>
</svg>
